<svg viewBox="0 0 32 32" xmlns="http://www.w3.org/2000/svg"><style id="current-color-scheme">.ColorScheme-Text { color:#232629; }.ColorScheme-NegativeText { color:#da4453; }.ColorScheme-NeutralText { color:#f67400; }</style><defs><mask id="cut" maskUnits="userSpaceOnUse" x="0" y="0" width="32" height="32"><rect width="32" height="32" fill="#fff"/><path d="M24.36 20.62 19.2 30.25c-.24.45.08.75.5.75h10.6c.42 0 .74-.3.5-.75l-5.16-9.63c-.28-.5-.96-.5-1.24 0z" fill="#000" stroke="#000" stroke-width="2" stroke-linejoin="round"/></mask></defs><path mask="url(#cut)" class="ColorScheme-Text" fill="currentColor" d="M4 6v17h11v3h-4v1h10v-1h-4v-3h11V6zm1 1h22v15H5zM22.319 8.097A3.5 3.5 0 1 1 18.097 12.319A3 3 0 0 0 22.319 8.097z"/><path class="ColorScheme-NeutralText" fill="currentColor" d="M24.36 20.62 19.2 30.25c-.24.45.08.75.5.75h10.6c.42 0 .74-.3.5-.75l-5.16-9.63c-.28-.5-.96-.5-1.24 0z"/><path fill="#fff" d="M24 23v5h2v-5zm0 6v1.5h2V29z"/></svg>
